<?xml version="1.0" standalone="no"?>
<!DOCTYPE svg PUBLIC "-//W3C//DTD SVG 20010904//EN"
 "http://www.w3.org/TR/2001/REC-SVG-20010904/DTD/svg10.dtd">
<svg version="1.0" xmlns="http://www.w3.org/2000/svg"
 width="16.000000pt" height="16.000000pt" viewBox="0 0 102.000000 102.000000"
 preserveAspectRatio="xMidYMid meet">
<metadata>
Created by potrace 1.11, written by Peter Selinger 2001-2013
</metadata>
<g transform="translate(0.000000,102.000000) scale(0.100000,-0.100000)"
fill="#c8c8c8" stroke="none">
<path d="M830 833 c-8 -3 -108 -98 -222 -211 l-206 -205 -96 96 c-117 120
-126 121 -208 40 -40 -40 -58 -65 -58 -83 0 -19 39 -64 168 -193 142 -142 172
-167 197 -167 26 0 67 37 308 278 230 231 277 283 277 306 0 20 -14 42 -52 81
-53 53 -80 68 -108 58z"/>
</g>
</svg>
