<?xml version="1.0" encoding="UTF-8" standalone="no"?>
<!-- Created with Inkscape (http://www.inkscape.org/) -->

<svg
   xmlns:dc="http://purl.org/dc/elements/1.1/"
   xmlns:cc="http://creativecommons.org/ns#"
   xmlns:rdf="http://www.w3.org/1999/02/22-rdf-syntax-ns#"
   xmlns:svg="http://www.w3.org/2000/svg"
   xmlns="http://www.w3.org/2000/svg"
   xmlns:inkscape="http://www.inkscape.org/namespaces/inkscape"
   version="1.1"
   width="304.64999"
   height="82.587502"
   id="svg2"
   xml:space="preserve"><metadata
     id="metadata8"><rdf:RDF><cc:Work
         rdf:about=""><dc:format>image/svg+xml</dc:format><dc:type
           rdf:resource="http://purl.org/dc/dcmitype/StillImage" /></cc:Work></rdf:RDF></metadata><defs
     id="defs6"><clipPath
       id="clipPath18"><path
         d="m 0,0 2437,0 0,660.684 -2437,0 L 0,0 z"
         inkscape:connector-curvature="0"
         id="path20" /></clipPath></defs><g
     transform="matrix(1.25,0,0,-1.25,0,82.5875)"
     id="g10"><g
       transform="scale(0.1,0.1)"
       id="g12"><g
         id="g14"><g
           clip-path="url(#clipPath18)"
           id="g16"><path
             d="m 319.52,355.758 142.726,0 -69.984,184.242 -1.84,0 -70.902,-184.242 z m -93.93,304.926 339.781,0 229.281,-561.5824 -258.75,0 -42.347,121.4964 -208.106,0 L 245.855,99.1016 0,99.1016 225.59,660.684"
             inkscape:connector-curvature="0"
             id="path22"
             style="fill:#ffffff;fill-opacity:1;fill-rule:nonzero;stroke:none" /><path
             d="m 824.488,660.684 364.642,0 83.79,-307.34 1.85,0 82.87,307.34 363.71,0 0,-561.5824 -220.98,0 -3.69,440.8984 -1.84,0 -126.15,-440.8984 -205.34,0 L 1040.88,540 l -3.68,0 -2.77,-440.8984 -209.942,0 0,561.5824"
             inkscape:connector-curvature="0"
             id="path24"
             style="fill:#ffffff;fill-opacity:1;fill-rule:nonzero;stroke:none" /><path
             d="M 2219.18,123.262 C 2219.18,55.2148 2163.97,0 2095.94,0 c -68.08,0 -123.25,55.2148 -123.25,123.262 0,68.078 55.17,123.277 123.25,123.277 68.03,0 123.24,-55.199 123.24,-123.277"
             inkscape:connector-curvature="0"
             id="path26"
             style="fill:#ee2722;fill-opacity:1;fill-rule:nonzero;stroke:none" /><path
             d="m 1755.77,660.684 0,-165.739 217.3,0 0,-220.433 c 33.52,27.269 76.26,43.648 122.84,43.648 47.07,0 90.26,-16.707 123.95,-44.515 l 0,221.3 217.31,0 0,165.739 -681.4,0"
             inkscape:connector-curvature="0"
             id="path28"
             style="fill:#ffffff;fill-opacity:1;fill-rule:nonzero;stroke:none" /></g></g></g></g></svg>